<svg width="1409" height="1344" viewBox="0 0 1409 1344" fill="none" xmlns="http://www.w3.org/2000/svg">
<path d="M1141.83 1015.94H1141.95C1142.01 1015.22 1142.13 1014.44 1142.19 1013.72C1142.07 1014.5 1141.95 1015.22 1141.83 1015.94Z" fill="#011833"/>
<path d="M283.04 1097.89C283.04 1097.89 283.28 1098.43 283.46 1098.67C284.121 1098.61 284.721 1098.55 285.381 1098.49C285.321 1097.83 283.52 1098.25 283.04 1097.89Z" fill="#011833"/>
<path d="M614.107 567.042C614.107 567.042 614.047 567.162 613.987 567.222C614.047 567.402 614.107 567.522 614.167 567.702C614.167 567.642 614.287 567.582 614.347 567.522C614.287 567.342 614.167 567.222 614.107 567.042Z" fill="#FFF5E1"/>
<path d="M1032.69 612.785L1056.29 601.98L1030.89 597.057C1029.81 596.877 934.185 577.908 862.15 529.343C890.724 531.324 934.425 530.664 972.664 514.696L1001.48 502.69L970.563 498.788C970.263 498.788 937.787 494.406 887.002 467.213C853.265 449.084 806.262 417.988 753.075 365.822C738.908 340.79 719.158 319.419 695.507 303.331C692.085 300.99 688.603 298.829 685.062 296.728C657.568 280.64 625.632 271.395 591.475 271.395C489.124 271.395 405.923 354.657 405.923 456.947C405.923 538.468 458.809 607.862 532.045 632.715H532.106C536.248 636.197 540.69 639.738 545.252 643.22C593.576 680.258 673.356 723.24 782.97 723.24C788.433 723.24 793.956 723.18 799.598 722.94L853.985 720.779L801.339 706.612C800.859 706.491 769.103 697.787 741.309 681.759C790.474 694.005 876.917 708.773 955.916 688.002L985.811 680.078L955.976 671.914C955.316 671.734 896.607 655.286 852.725 617.527C865.151 620.169 880.879 623.05 898.468 625.151C954.656 632.054 999.858 627.912 1032.69 612.785ZM725.462 361.32C727.983 364.802 730.384 368.403 732.605 372.125C725.582 366.362 718.858 361.8 713.095 358.318C712.735 352.616 709.254 346.312 706.612 341.39C706.432 341.09 706.252 340.79 706.072 340.43C705.412 339.229 704.691 338.028 703.971 336.768C711.895 344.211 719.098 352.436 725.462 361.32ZM666.933 395.477C671.375 394.276 675.577 391.635 678.938 389.234C687.163 383.471 696.347 378.008 703.611 371.465C704.871 370.384 706.552 369.004 708.173 367.623C718.858 374.166 733.085 384.672 746.052 400.099C752.415 417.328 755.957 435.997 756.077 455.387C741.309 472.975 725.462 483.781 716.937 488.883C716.517 487.743 715.917 486.722 715.016 485.702C709.434 479.759 702.89 474.836 696.107 470.394C686.982 464.511 677.498 457.908 666.692 455.447C669.034 429.814 668.133 408.743 666.933 395.477ZM755.416 471.655C751.935 511.154 734.466 546.632 707.993 573.225C703.791 568.723 700.069 563.861 697.488 560.559C697.908 560.019 698.268 559.478 698.628 558.938C707.573 544.711 713.035 528.623 715.977 512.115C716.697 508.333 717.358 504.371 717.598 500.469C723.601 497.288 739.208 488.223 755.416 471.655ZM656.187 455.867C652.225 457.548 648.623 460.429 645.262 462.65C633.796 469.914 623.711 478.438 613.926 487.983C609.184 492.665 603.061 498.548 599.639 505.091C566.323 499.268 540.15 485.222 525.262 475.617C525.562 472.735 524.782 469.194 524.662 466.432C524.542 461.99 524.422 457.548 524.422 453.046C524.362 443.021 524.782 432.936 524.782 422.851C524.842 417.268 525.562 411.625 525.262 406.042C525.202 404.782 524.962 403.581 524.482 402.56C535.407 391.875 559.959 371.525 595.557 363.061C597.058 363.961 598.799 364.742 600.54 365.522C617.888 373.146 650.905 392.055 656.367 394.636C657.568 407.603 658.708 429.334 656.187 455.867ZM591.475 292.226C607.503 292.226 622.931 294.567 637.578 298.829C623.171 298.109 612.606 299.009 609.184 299.549C608.283 299.669 607.383 299.849 606.543 300.09C601.44 297.568 595.317 294.807 588.233 292.286C589.314 292.226 590.394 292.226 591.475 292.226ZM477.178 338.509C499.509 316.958 527.843 301.65 559.359 295.407C574.307 298.049 587.033 302.671 596.758 307.053C593.756 312.276 593.036 318.819 592.255 324.642C590.875 334.126 589.674 343.851 590.815 353.456C553.236 362.941 527.963 384.251 516.678 395.477C514.097 394.396 511.455 393.616 508.994 393.016C499.509 390.675 489.905 387.433 480.18 386.232C478.019 385.992 475.077 385.392 472.256 385.212C471.716 374.226 472.196 357.418 477.178 338.509ZM463.431 353.516C461.27 368.043 461.39 380.349 461.931 388.814C457.428 392.716 453.767 398.659 450.825 403.281C443.441 414.927 437.439 428.373 434.677 441.94C434.317 443.561 434.137 445.182 434.077 446.802C432.036 447.103 429.575 447.283 427.113 447.163C429.154 411.805 442.481 379.449 463.431 353.516ZM470.275 562.36C469.134 562.66 467.934 562.9 466.733 563.02C466.373 563.08 466.073 563.14 465.773 563.2C441.581 534.626 426.993 497.888 426.813 457.668C427.293 457.728 427.774 457.728 428.194 457.728C430.835 457.728 433.296 457.488 435.518 457.188C436.838 462.23 438.879 467.213 440.62 471.955C443.982 481.2 449.865 488.523 456.288 495.787C457.969 497.648 460.01 499.028 461.631 500.889C463.071 502.45 464.812 503.951 466.613 505.151C467.393 521.359 470.695 535.887 474.837 548.193C476.278 552.515 477.839 556.537 479.399 560.259C476.398 560.979 473.276 561.7 470.275 562.36ZM553.296 597.537C540.45 592.315 528.924 584.931 516.918 577.968C510.915 574.486 504.912 570.704 499.269 566.622C496.568 564.641 493.987 562.66 491.165 560.979C484.622 546.872 478.079 527.422 476.998 504.311C480.06 503.11 482.761 501.37 485.823 499.749C489.664 497.708 493.566 495.967 497.408 493.926C503.952 490.444 511.395 487.443 517.818 483.301C533.066 493.506 560.98 508.873 597.298 515.296C597.538 517.758 598.138 520.279 598.619 522.56C599.999 529.223 602.1 535.767 604.201 542.25C606.543 549.513 609.304 556.717 612.425 563.741C612.906 564.881 613.446 566.082 613.986 567.222C614.046 567.162 614.046 567.102 614.106 567.042C614.166 567.222 614.286 567.342 614.346 567.522C614.286 567.582 614.226 567.642 614.166 567.702C614.767 568.903 615.307 570.164 615.907 571.364C595.497 587.993 573.886 596.337 559.119 600.419C557.258 599.398 555.337 598.378 553.296 597.537ZM568.364 608.643C583.611 603.84 603.361 595.196 622.33 579.648C622.751 579.768 623.171 579.889 623.651 579.949C627.853 580.489 632.175 579.829 636.377 579.648C642.62 579.468 648.804 578.808 654.987 577.788C663.091 576.407 671.255 574.906 679.059 572.145C682.48 570.944 686.082 569.383 689.384 567.402C692.025 570.944 695.867 575.806 700.189 580.489C671.195 606.062 633.076 621.609 591.475 621.609C585.652 621.609 579.889 621.309 574.247 620.709C573.946 620.169 573.646 619.628 573.406 619.028C571.725 615.786 570.345 612.365 568.664 609.183C568.544 609.003 568.484 608.823 568.364 608.643ZM820.249 607.862C850.024 643.88 894.085 666.211 922.9 677.857C818.688 693.705 707.993 654.866 706.792 654.446L679.479 644.661L697.908 667.532C710.934 683.68 731.705 696.286 750.914 705.351C672.515 698.928 612.185 669.873 570.645 641.299C577.488 642.079 584.452 642.5 591.475 642.5C597.118 642.5 602.641 642.26 608.163 641.719C621.97 640.519 635.357 637.757 648.143 633.615C656.727 630.914 664.952 627.552 672.936 623.59C700.849 609.963 724.801 589.433 742.69 564.281C745.392 560.499 747.973 556.597 750.374 552.635C761.48 534.206 769.524 513.736 773.726 491.945C775.887 480.599 777.027 468.893 777.027 456.887C777.027 438.338 774.326 420.449 769.223 403.581C843.18 469.494 904.531 496.867 938.988 507.973C887.962 519.318 835.016 509.474 834.416 509.353L803.921 503.531L827.752 523.881C881.899 570.224 958.137 595.556 999.198 606.542C926.742 622.99 829.793 594.836 828.653 594.536L802.96 586.912L820.249 607.862Z" fill="#FF531F"/>
<path d="M828.653 594.536L802.96 586.912L820.249 607.863C850.023 643.88 894.085 666.212 922.9 677.857C818.688 693.705 707.993 654.866 706.792 654.446L679.479 644.661L697.908 667.532C710.934 683.68 731.705 696.286 750.914 705.351C672.515 698.928 612.185 669.873 570.645 641.299C577.488 642.08 584.451 642.5 591.475 642.5C597.118 642.5 602.64 642.26 608.163 641.719C621.97 640.519 635.357 637.757 648.143 633.615C656.727 630.914 664.951 627.552 672.935 623.59C700.849 609.964 724.801 589.433 742.69 564.281C745.391 560.499 747.973 556.597 750.374 552.635C761.479 534.206 769.523 513.736 773.725 491.945C775.887 480.599 777.027 468.893 777.027 456.888C777.027 438.338 774.326 420.449 769.223 403.581C843.18 469.494 904.53 496.867 938.988 507.973C887.962 519.319 835.016 509.474 834.416 509.354L803.92 503.531L827.752 523.881C881.899 570.224 958.137 595.556 999.197 606.542C926.741 622.99 829.793 594.836 828.653 594.536Z" fill="#FFB516"/>
<path d="M637.579 298.829C623.172 298.108 612.607 299.009 609.185 299.549C608.284 299.669 607.384 299.849 606.543 300.089C601.441 297.568 595.318 294.807 588.234 292.285C589.315 292.225 590.395 292.225 591.476 292.225C607.504 292.225 622.932 294.566 637.579 298.829Z" fill="#FFF5E1"/>
<path d="M732.605 372.125C725.581 366.363 718.858 361.8 713.095 358.319C712.735 352.616 709.253 346.313 706.612 341.39C706.432 341.09 706.252 340.79 706.072 340.43C705.411 339.229 704.691 338.028 703.971 336.768C711.895 344.212 719.098 352.436 725.461 361.32C727.983 364.802 730.384 368.404 732.605 372.125Z" fill="#FFF5E1"/>
<path d="M755.415 471.655C751.933 511.154 734.465 546.632 707.992 573.225C703.789 568.723 700.068 563.86 697.486 560.559C697.907 560.019 698.267 559.478 698.627 558.938C707.571 544.711 713.034 528.623 715.975 512.115C716.696 508.333 717.356 504.371 717.596 500.469C723.599 497.287 739.207 488.223 755.415 471.655Z" fill="#FFF5E1"/>
<path d="M700.19 580.488C671.195 606.061 633.076 621.609 591.476 621.609C585.653 621.609 579.89 621.309 574.247 620.708C573.947 620.168 573.647 619.628 573.407 619.028C571.726 615.786 570.345 612.364 568.664 609.183C568.544 609.003 568.484 608.822 568.364 608.642C583.612 603.84 603.362 595.196 622.331 579.648C622.751 579.768 623.171 579.888 623.652 579.948C627.854 580.488 632.176 579.828 636.378 579.648C642.621 579.468 648.804 578.808 654.987 577.787C663.091 576.406 671.255 574.906 679.059 572.144C682.481 570.944 686.083 569.383 689.384 567.402C692.026 570.944 695.868 575.806 700.19 580.488Z" fill="#FFF5E1"/>
<path d="M615.906 571.365C595.496 587.993 573.885 596.337 559.118 600.419C557.257 599.398 555.336 598.378 553.295 597.538C540.449 592.315 528.923 584.931 516.917 577.968C510.914 574.486 504.911 570.704 499.268 566.622C496.567 564.641 493.986 562.66 491.164 560.979C484.621 546.872 478.078 527.423 476.997 504.311C480.059 503.111 482.76 501.37 485.821 499.749C489.663 497.708 493.565 495.967 497.407 493.926C503.95 490.444 511.394 487.443 517.817 483.301C533.065 493.506 560.979 508.873 597.297 515.297C597.537 517.758 598.137 520.279 598.618 522.56C599.998 529.224 602.099 535.767 604.2 542.25C606.541 549.514 609.303 556.717 612.424 563.741C612.905 564.881 613.445 566.082 613.985 567.222C614.045 567.403 614.105 567.523 614.165 567.703C614.766 568.903 615.306 570.164 615.906 571.365Z" fill="#FFF5E1"/>
<path d="M479.4 560.258C476.398 560.979 473.277 561.699 470.275 562.359C469.134 562.66 467.934 562.9 466.733 563.02C466.373 563.08 466.073 563.14 465.773 563.2C441.581 534.626 426.994 497.887 426.813 457.667C427.294 457.727 427.774 457.728 428.194 457.728C430.835 457.728 433.297 457.487 435.518 457.187C436.838 462.23 438.879 467.212 440.62 471.955C443.982 481.199 449.865 488.523 456.288 495.786C457.969 497.647 460.01 499.028 461.631 500.889C463.072 502.45 464.812 503.95 466.613 505.151C467.394 521.359 470.695 535.886 474.837 548.192C476.278 552.515 477.839 556.537 479.4 560.258Z" fill="#FFF5E1"/>
<path d="M461.93 388.814C457.427 392.716 453.766 398.659 450.824 403.281C443.44 414.927 437.437 428.374 434.676 441.94C434.316 443.561 434.136 445.182 434.076 446.803C432.035 447.103 429.574 447.283 427.112 447.163C429.153 411.805 442.48 379.449 463.43 353.516C461.269 368.044 461.389 380.35 461.93 388.814Z" fill="#FFF5E1"/>
<path d="M592.256 324.642C590.875 334.126 589.674 343.851 590.815 353.456C553.236 362.941 527.964 384.251 516.678 395.477C514.097 394.396 511.455 393.616 508.994 393.016C499.509 390.674 489.905 387.433 480.18 386.232C478.019 385.992 475.077 385.392 472.256 385.212C471.716 374.226 472.196 357.418 477.178 338.509C499.509 316.958 527.844 301.65 559.359 295.407C574.307 298.048 587.033 302.671 596.758 307.053C593.756 312.276 593.036 318.819 592.256 324.642Z" fill="#FFF5E1"/>
<path d="M756.077 455.387C741.309 472.976 725.462 483.781 716.937 488.883C716.517 487.743 715.917 486.722 715.016 485.702C709.434 479.759 702.89 474.836 696.107 470.394C686.982 464.511 677.498 457.908 666.692 455.447C669.034 429.814 668.133 408.744 666.933 395.477C671.375 394.276 675.577 391.635 678.938 389.234C687.163 383.471 696.347 378.008 703.611 371.465C704.871 370.385 706.552 369.004 708.173 367.623C718.858 374.166 733.085 384.672 746.052 400.099C752.415 417.328 755.957 435.997 756.077 455.387Z" fill="#FFF5E1"/>
<path d="M656.188 455.867C652.226 457.548 648.625 460.429 645.263 462.65C633.797 469.914 623.712 478.438 613.927 487.983C609.185 492.665 603.062 498.548 599.64 505.091C566.324 499.269 540.151 485.222 525.263 475.617C525.563 472.735 524.783 469.194 524.663 466.432C524.543 461.99 524.423 457.548 524.423 453.046C524.363 443.021 524.783 432.936 524.783 422.851C524.843 417.268 525.563 411.625 525.263 406.042C525.203 404.782 524.963 403.581 524.483 402.561C535.408 391.875 559.961 371.525 595.558 363.061C597.059 363.961 598.8 364.742 600.541 365.522C617.889 373.146 650.906 392.055 656.368 394.637C657.569 407.603 658.71 429.334 656.188 455.867Z" fill="#FFF5E1"/>
<path d="M71.7871 899.401C72.1494 903.568 72.4211 907.554 72.6929 911.358V899.401H71.7871Z" fill="#011833"/>
<path d="M200.952 1011.27C200.681 1013.17 199.141 1014.16 196.242 1014.44C195.518 1014.44 194.884 1014.53 194.25 1014.53C191.532 1014.8 187.637 1015.16 182.384 1015.7C177.221 1016.25 173.326 1016.7 170.609 1016.88C163.091 1017.51 155.482 1018.15 147.964 1018.78C147.24 1018.51 145.338 1014.16 142.349 1005.74C139.088 996.682 134.378 983.548 128.037 966.338C121.606 949.219 118.074 939.618 117.349 937.625C117.711 941.792 118.164 948.042 118.889 956.284C119.614 964.618 120.066 970.867 120.519 975.034C120.791 978.204 121.244 982.824 121.878 989.073C122.512 995.323 122.965 1000.03 123.237 1003.11C123.69 1007.55 124.052 1012.08 124.505 1016.52C124.776 1019.78 123.871 1021.5 121.787 1021.68C110.012 1022.77 98.1466 1023.86 86.3714 1024.94C85.1939 1024.22 83.9258 1023.49 82.7483 1022.68C81.2085 1006.65 79.6687 990.704 78.1289 974.672C76.8608 961.991 75.0492 940.886 72.6942 911.358V899.401H71.7884C71.1544 891.431 70.5203 882.916 69.8863 873.949C69.6145 871.051 69.3428 868.152 69.0711 865.254C68.8899 863.623 69.0711 862.717 69.4334 862.355L72.6942 862.083C76.0455 861.721 79.3969 861.449 82.7483 861.178C96.4256 859.91 110.103 858.641 123.78 857.464C124.233 857.464 125.592 860 127.675 865.254C128.49 867.337 129.305 869.692 130.302 872.228C131.751 876.123 133.381 880.561 135.283 885.543C137.457 891.521 139.088 896.141 140.265 899.401C140.809 900.67 141.171 901.756 141.533 902.662C146.334 915.343 151.044 928.024 155.754 940.705C154.667 926.937 153.49 913.169 152.312 899.401C152.04 895.869 151.587 889.347 150.953 879.837C150.772 877.119 150.591 874.583 150.319 872.228C149.957 866.341 149.595 861.449 149.232 857.645C149.051 855.652 153.218 854.294 161.551 853.66C164.268 853.478 167.801 853.207 172.42 853.026C177.04 852.754 179.848 852.663 180.935 852.573C182.927 852.392 184.92 852.21 186.913 852.029C187.728 852.029 188.181 852.21 188.272 852.573C188.815 858.37 189.358 864.982 189.992 872.228C190.717 880.38 191.442 889.528 192.257 899.401C193.163 910.905 194.159 923.495 195.246 937.354C197.148 961.991 199.05 986.628 200.952 1011.27Z" fill="#011833"/>
<path d="M328.123 920.507C327.67 912.989 326.764 906.014 325.315 899.402C324.681 895.87 323.866 892.518 322.869 889.258C321.058 883.37 318.612 877.664 315.623 872.229C313.902 869.059 312 865.979 309.917 862.899C307.199 858.642 303.758 854.929 299.682 851.849C295.606 848.769 291.348 846.505 287.091 845.056C282.743 843.606 278.667 842.61 274.863 842.067C271.059 841.523 267.345 841.432 263.903 841.614C257.563 842.066 251.494 843.335 245.697 845.509C239.9 847.682 234.375 850.943 229.212 855.2C224.14 859.457 219.701 864.53 215.988 870.417C215.625 871.051 215.263 871.595 214.991 872.229C211.73 877.845 209.194 884.366 207.292 891.884C206.658 894.33 206.205 896.776 205.843 899.402C204.756 905.652 204.394 912.446 204.575 919.511C204.846 923.405 205.118 927.3 205.481 931.195C205.843 937.083 206.567 942.699 207.564 948.224C208.56 953.658 209.828 959.274 211.64 964.981C213.361 970.778 215.444 976.031 217.89 980.832C220.335 985.632 223.234 990.161 226.766 994.418C230.299 998.676 234.194 1002.21 238.541 1005.02C242.799 1007.91 247.78 1010 253.577 1011.45C259.284 1012.9 265.443 1013.44 272.146 1012.99C277.762 1012.62 283.287 1011.54 288.812 1009.73C294.247 1007.91 299.591 1004.93 304.935 1000.76C310.279 996.592 314.265 991.611 316.982 985.814C317.978 983.549 318.975 981.375 319.971 979.201C326.945 964.075 329.663 944.51 328.123 920.507ZM282.743 950.941C282.472 953.477 281.928 956.104 281.294 958.912C280.66 961.629 279.754 963.803 278.667 965.524C277.58 967.155 276.222 968.604 274.501 969.781C272.87 970.868 270.878 971.502 268.613 971.683C266.439 971.683 264.447 970.959 262.635 969.328C260.824 967.789 259.374 965.887 258.197 963.441C257.11 961.086 256.114 958.278 255.298 955.017C254.483 951.756 253.849 948.586 253.487 945.688C253.124 942.789 252.853 939.619 252.581 936.358C252.4 933.007 252.128 930.199 252.038 928.025C251.947 925.851 251.856 922.771 251.766 918.786C251.675 914.891 251.766 911.54 251.947 909.004C252.128 906.377 252.49 903.388 253.124 900.127C253.124 899.855 253.215 899.583 253.306 899.402C253.759 896.413 254.483 893.968 255.389 892.156C256.295 890.163 257.563 888.442 259.193 886.993C260.824 885.544 262.726 884.729 264.809 884.638C267.073 884.457 269.066 884.91 270.787 885.906C272.599 886.903 274.048 888.442 275.225 890.526C276.403 892.518 277.49 894.692 278.305 897.047C278.577 897.772 278.849 898.587 279.03 899.402C279.664 901.123 280.117 903.116 280.479 905.199C280.932 908.279 281.385 911.177 281.656 913.714C281.928 916.25 282.2 919.058 282.381 921.956C282.653 926.032 282.834 929.384 282.925 932.101C283.106 934.728 283.106 937.898 283.106 941.612C283.106 945.325 283.015 948.496 282.743 950.941Z" fill="#011833"/>
<path d="M452.396 940.161C451.943 950.85 450.313 960.451 447.414 968.784C444.516 977.117 440.711 983.911 435.911 989.345C431.11 994.689 425.585 998.856 419.335 1001.75C413.085 1004.65 406.201 1006.28 398.683 1006.65C391.709 1007.01 385.278 1006.28 379.39 1004.47C373.503 1002.66 368.521 1000.12 364.354 996.773C360.188 993.512 356.474 989.436 353.213 984.635C349.862 979.744 347.145 974.762 345.061 969.599C342.978 964.346 341.166 958.639 339.717 952.39C338.177 946.23 337.09 940.343 336.456 934.908C335.732 929.564 335.188 923.857 334.917 917.97C334.735 914.89 334.554 911.72 334.373 908.55C334.373 905.38 334.464 902.391 334.735 899.401C335.188 892.518 336.366 886.177 338.177 880.29C339.083 877.391 339.989 874.674 341.166 872.228C343.069 867.337 345.424 863.17 348.141 859.638C352.217 854.294 357.017 849.855 362.452 846.142C367.977 842.519 373.322 839.892 378.575 838.261C383.829 836.722 389.173 835.816 394.426 835.544C402.941 835.182 410.458 836.178 417.071 838.624C423.773 841.069 429.208 844.692 433.556 849.584C437.813 854.384 441.255 859.909 443.882 866.25C444.606 868.152 445.331 870.145 445.874 872.228C447.414 876.938 448.411 882.192 449.135 887.717C449.226 891.159 449.407 894.51 449.497 897.952C449.497 898.496 449.226 899.039 448.501 899.401C446.508 900.851 441.074 901.666 432.378 902.119C429.661 902.209 425.947 902.3 421.056 902.3C416.255 902.391 413.085 902.481 411.545 902.572C411.274 902.572 410.911 902.572 410.368 902.753C409.824 902.843 409.462 902.843 409.19 902.843C407.832 902.934 406.745 902.209 406.02 900.76C405.748 900.307 405.567 899.854 405.477 899.401C404.933 898.133 404.571 896.775 404.299 895.144C403.937 892.97 403.575 890.797 403.122 888.623C402.759 886.449 401.944 884.547 400.767 883.097C399.589 881.648 398.14 880.924 396.238 881.014C394.336 881.105 392.705 881.648 391.347 882.554C389.988 883.46 388.901 884.818 388.176 886.721C387.361 888.532 386.818 890.434 386.365 892.246C385.912 894.148 385.64 896.503 385.459 899.401V899.583C385.459 902.481 385.459 905.017 385.459 907.01C385.459 909.003 385.459 911.811 385.64 915.162C385.821 918.513 385.821 921.05 385.912 922.589C385.912 923.405 385.912 925.035 386.002 927.299C386.002 929.564 386.002 931.375 386.093 932.825C386.908 950.578 390.803 959.455 397.687 959.636C399.499 959.545 401.038 958.549 402.125 956.647C403.212 954.745 403.937 952.661 404.299 950.397C404.661 948.042 405.024 945.596 405.477 943.06C405.93 940.524 406.473 938.803 407.107 937.807C421.237 937.172 435.367 936.538 449.497 935.995C451.218 936.176 452.215 937.535 452.487 940.161H452.396Z" fill="#011833"/>
<path d="M577.124 993.331C576.762 995.867 571.871 997.226 562.36 997.498C551.672 997.679 540.893 997.95 530.205 998.313C529.389 996.773 528.574 995.324 527.759 993.874C527.668 991.519 527.668 989.164 527.578 986.809C527.397 982.099 527.216 975.034 527.034 965.705C526.853 956.375 526.672 949.31 526.491 944.509C526.491 942.879 526.31 941.792 526.038 941.158C525.676 940.615 525.132 940.343 524.227 940.343C523.321 940.343 522.324 940.343 521.419 940.433C517.886 940.524 514.716 940.886 511.817 941.52C511.999 947.408 512.18 956.285 512.451 968.15C512.723 980.016 512.904 988.983 513.085 994.961C512.542 997.135 506.111 998.313 493.883 998.766C490.803 998.856 487.814 998.947 484.735 999.037C483.285 999.128 481.655 999.219 479.753 999.4C477.851 999.581 476.311 999.671 475.315 999.853C474.318 999.943 473.141 999.943 471.782 999.853C470.514 999.853 469.518 999.581 468.793 999.219C468.159 998.856 467.434 998.313 466.619 997.588C465.894 996.773 465.26 995.777 464.898 994.418C464.536 993.059 464.173 991.429 463.811 989.436C463.539 987.443 463.358 985.088 463.268 982.28C462.634 966.973 462.09 945.959 461.456 919.329C461.275 912.173 461.184 905.561 461.094 899.402C460.732 888.804 460.55 879.746 460.279 872.228C460.188 867.881 460.007 864.076 459.916 860.816C459.373 845.417 459.645 837.265 460.731 836.36C470.514 835.997 480.387 835.726 490.169 835.363C495.423 835.182 499.318 835.454 501.944 836.178C504.481 836.994 506.202 838.171 507.107 839.711C508.013 841.341 508.466 843.787 508.647 847.138V853.026C508.647 855.924 508.647 858.279 508.738 860.181C508.738 861.812 508.828 863.442 508.828 865.163C508.919 866.884 508.919 869.239 508.919 872.228V875.399C508.919 879.928 508.919 883.369 509.009 885.634C509.009 886.358 509.009 887.083 509.1 887.808C509.191 888.17 509.281 888.804 509.281 889.438C510.278 889.438 511.364 889.438 512.361 889.348H520.603C522.958 889.257 524.77 888.985 525.948 888.532C525.766 883.098 525.585 877.663 525.495 872.228C525.132 862.899 524.951 853.479 524.679 844.149C524.589 840.617 524.589 838.08 524.861 836.541C525.042 835.001 525.404 834.004 525.857 833.552C526.31 833.189 527.216 832.918 528.484 832.918H531.835C533.375 833.008 534.462 833.008 535.096 833.008C537.089 832.827 538.991 832.646 540.983 832.465C544.969 832.193 548.501 832.012 551.581 831.921C565.983 831.559 573.139 833.552 573.229 837.809C573.32 838.986 573.32 840.617 573.41 842.791C573.501 844.874 573.591 846.504 573.591 847.682C573.682 850.127 573.682 853.751 573.773 858.551C573.773 863.352 573.863 866.975 573.954 869.42V872.228C574.135 878.931 574.407 887.989 574.769 899.402C574.769 900.398 574.86 901.485 574.86 902.572C575.312 917.155 575.584 928.205 575.765 935.633V938.078C575.675 938.984 575.675 939.618 575.675 939.89C575.765 941.611 575.765 943.332 575.765 945.053C575.856 949.582 576.037 953.024 576.128 955.288C576.218 956.103 576.218 956.828 576.218 957.643C576.128 957.915 576.037 958.368 576.128 958.911C576.128 962.716 576.309 968.422 576.581 976.121C576.852 983.82 577.033 989.527 577.124 993.331Z" fill="#011833"/>
<path d="M684.275 988.984C684.275 992.516 683.278 994.328 681.195 994.328C678.568 994.328 674.402 994.328 668.876 994.237H656.196C648.768 994.328 638.171 994.69 624.312 995.415C610.544 996.139 600.49 996.592 594.331 996.773C593.606 995.687 592.882 994.6 592.157 993.422C591.885 991.429 591.795 990.161 591.704 989.618V985.542C591.432 973.404 591.251 955.379 590.979 931.648C590.798 919.329 590.708 908.641 590.617 899.402C590.527 890.797 590.345 883.551 590.255 877.664C590.255 875.852 590.164 874.041 590.164 872.229C589.893 859.276 589.711 846.414 589.53 833.462C620.236 832.918 650.942 832.556 681.648 832.375C681.738 844.059 681.738 855.744 681.829 867.428V870.689C681.829 870.689 681.829 871.504 681.738 872.229C681.738 873.044 681.648 873.497 681.467 873.859C681.376 874.131 681.195 874.493 680.923 875.037C680.742 875.58 680.47 875.943 680.108 876.214C679.836 876.396 679.383 876.577 678.931 876.758C678.387 876.939 677.753 877.03 677.119 877.03H674.945C661.358 877.12 649.04 877.03 637.808 876.577C637.718 877.664 637.537 879.475 637.355 881.83C637.174 884.185 636.993 886.359 636.902 888.171C636.812 889.982 636.721 891.703 636.721 893.424C649.221 893.243 661.63 893.152 674.13 893.062C675.67 893.062 676.757 893.334 677.21 893.968C677.753 894.511 678.025 895.417 678.025 896.685V898.406C678.025 898.406 677.934 899.131 677.934 899.402V900.127C677.934 903.569 678.025 908.641 678.206 915.253C678.387 921.956 678.568 927.029 678.568 930.471C678.387 931.829 678.025 932.554 677.3 932.554C677.028 932.644 676.757 932.463 676.576 932.191C660.09 933.369 647.953 934.094 640.073 934.184H637.989C638.08 939.347 638.08 944.42 638.171 949.583C642.79 949.492 649.493 949.22 658.188 948.495C666.974 947.861 673.496 947.59 677.844 947.499C681.286 947.499 683.278 948.495 683.822 950.488V958.64C683.822 961.992 683.912 967.064 684.093 973.767C684.184 980.47 684.275 985.542 684.275 988.984Z" fill="#011833"/>
<path d="M859.365 899.402C859.275 897.319 859.093 895.235 858.822 893.152C858.007 886.902 857.101 881.649 855.923 877.301C855.47 875.58 854.927 873.859 854.383 872.229C853.568 869.874 852.753 867.519 851.847 865.345C850.307 861.631 849.039 858.823 847.952 857.012C846.865 855.2 845.96 853.66 845.054 852.573C844.148 851.396 843.242 850.218 842.246 849.041C831.739 837.175 813.805 831.016 788.624 830.744C787.084 830.744 784.82 830.835 781.649 830.925C778.479 831.016 776.034 831.106 774.313 831.016H765.436C765.436 831.016 764.349 830.925 762.809 830.925C761.269 830.835 760.001 830.835 758.824 830.835C757.646 830.835 756.197 830.835 754.385 830.925C752.664 831.016 751.125 831.106 749.857 831.287C748.588 831.559 747.32 831.74 746.052 832.103C744.784 832.374 743.788 832.918 743.154 833.461C742.52 834.095 742.157 834.729 742.157 835.545C742.157 847.773 742.067 860.001 741.976 872.229C741.976 881.286 741.976 890.344 741.886 899.402C741.795 928.387 741.705 957.372 741.523 986.357C741.523 989.165 742.157 992.335 743.426 995.777C753.842 995.233 765.527 995.052 778.479 995.143C780.744 995.143 784.004 995.324 788.352 995.505C792.79 995.686 796.051 995.777 798.316 995.777C799.131 995.777 799.946 995.867 800.761 995.867C806.739 995.867 812.536 994.78 818.152 992.516C823.859 990.161 829.112 986.719 834.003 982.009C838.985 977.299 843.242 971.592 847.047 965.071C850.76 958.549 853.749 950.76 856.014 941.702C858.278 932.735 859.546 923.043 859.728 912.626C859.818 908.097 859.727 903.659 859.365 899.402ZM813.261 912.083C813.17 915.706 813.08 918.967 812.899 921.956C812.627 924.854 812.355 928.025 811.812 931.285C811.359 934.637 810.725 937.535 809.91 940.071C809.094 942.608 808.098 945.144 806.739 947.499C805.381 949.944 803.841 951.937 802.12 953.477C800.399 955.017 798.316 956.194 795.78 957.191C793.334 958.096 790.526 958.549 787.356 958.459C785.091 958.006 784.276 938.26 784.91 899.402C785.091 895.235 785.182 890.797 785.272 886.087C785.363 881.558 785.454 878.841 785.454 877.754V872.591C785.454 872.591 785.544 872.41 785.635 872.229C785.816 871.504 786.269 870.598 786.722 869.421C787.356 868.062 787.809 866.975 788.08 866.25C795.236 866.613 800.852 868.605 804.747 872.229C806.015 873.406 807.102 874.765 808.008 876.305C811.087 881.649 812.899 889.257 813.261 899.402C813.352 901.304 813.352 903.297 813.352 905.38C813.261 907.645 813.261 909.818 813.261 912.083Z" fill="#011833"/>
<path d="M964.341 836.813C963.888 848.497 963.435 860.182 963.073 871.866V872.229C963.073 872.229 962.982 872.953 962.982 873.406C962.982 874.312 962.892 874.855 962.892 875.127C962.892 875.399 962.892 875.942 962.892 876.667C962.801 877.392 962.71 877.935 962.529 878.207C962.439 878.478 962.258 878.931 961.986 879.384C961.714 879.928 961.442 880.29 961.08 880.471C960.808 880.743 960.355 880.924 959.812 881.015C959.268 881.196 958.725 881.286 958.091 881.286C957.366 881.196 956.642 881.196 955.827 881.196C942.33 880.743 929.921 880.018 918.78 879.112C918.599 880.29 918.418 882.011 918.146 884.366C917.784 886.812 917.512 888.895 917.331 890.706C917.15 892.518 917.059 894.239 917.059 895.96C929.468 896.322 941.878 896.685 954.377 897.137C955.917 897.228 957.004 897.5 957.457 898.134C957.729 898.406 957.91 898.858 958 899.402C958.182 899.855 958.182 900.398 958.182 900.942C958.182 901.304 958.091 901.847 958 902.663C957.91 903.387 957.91 904.021 957.91 904.384C957.729 907.735 957.638 912.807 957.547 919.51C957.457 926.213 957.366 931.285 957.276 934.637C957.095 936.086 956.642 936.81 955.917 936.72C955.645 936.72 955.374 936.72 955.192 936.267C938.707 936.901 926.479 937.082 918.599 936.811C917.965 936.811 917.24 936.81 916.606 936.72C916.425 941.883 916.244 947.046 916.153 952.118C920.773 952.299 927.476 952.209 936.171 951.937C944.957 951.575 951.479 951.575 955.917 951.756C959.269 951.846 961.261 952.933 961.714 954.926C961.624 957.643 961.442 960.361 961.352 962.988C961.261 966.43 961.171 971.502 960.989 978.205C960.808 984.907 960.718 989.98 960.627 993.331C960.446 996.954 959.359 998.675 957.276 998.585C954.649 998.494 950.482 998.313 944.957 998.041C939.341 997.769 935.175 997.588 932.276 997.498C924.849 997.226 914.251 997.226 900.393 997.317C886.534 997.498 876.571 997.588 870.412 997.498C869.687 996.32 868.962 995.233 868.328 994.056C868.147 992.063 868.057 990.795 868.057 990.161C868.147 988.802 868.147 987.444 868.147 986.085C868.419 973.948 868.962 956.013 869.687 932.191C870.14 919.691 870.412 908.731 870.683 899.402C870.955 891.069 871.136 884.004 871.227 878.297C871.317 876.305 871.317 874.221 871.408 872.229C871.68 859.457 871.951 846.867 872.223 834.095C903.02 834.82 933.726 835.726 964.431 836.813H964.341Z" fill="#011833"/>
<path d="M1139.52 916.249C1138.88 925.579 1137.89 939.165 1136.44 956.919C1135.08 974.762 1134.08 987.715 1133.63 995.686C1133.54 995.958 1133.54 996.32 1133.63 996.773V997.86C1133.54 998.675 1133.54 999.4 1133.45 1000.21C1131.55 1002.93 1125.66 1005.11 1115.88 1006.65C1106.1 1008.19 1097.85 1008.82 1091.24 1008.37C1090.61 1008.37 1089.97 1008.37 1089.25 1008.28C1087.8 1008.19 1085.71 1008.28 1082.82 1008.37C1080.01 1008.46 1077.83 1008.55 1076.39 1008.46C1055.64 1007.28 1040.24 998.856 1029.92 983.005C1019.59 967.244 1014.97 945.868 1016.15 919.057C1016.51 912.082 1017.15 905.561 1018.23 899.402C1018.69 896.956 1019.23 894.51 1019.77 892.155C1021.68 884.366 1024.12 877.663 1026.93 872.228L1027.2 871.685C1030.19 866.069 1033.63 861.178 1037.71 857.011C1041.69 852.754 1045.86 849.403 1050.03 846.957C1054.19 844.511 1058.72 842.519 1063.43 840.979C1068.23 839.53 1072.67 838.624 1076.75 838.261C1080.82 837.809 1084.9 837.718 1089.16 837.99C1092.15 838.171 1095.14 838.533 1098.03 838.986C1101.02 839.53 1104.28 840.345 1107.82 841.432C1111.44 842.519 1114.79 844.149 1117.87 846.142C1120.95 848.225 1123.94 850.58 1126.66 853.479C1129.46 856.287 1131.73 859.91 1133.63 864.257C1134.72 866.703 1135.62 869.42 1136.26 872.228C1136.8 874.402 1137.16 876.576 1137.43 878.931C1137.53 881.014 1137.71 886.811 1137.89 896.503C1137.53 898.405 1136.08 899.402 1133.36 899.402H1132.63C1128.2 899.039 1121.67 898.496 1113.07 897.771C1104.56 896.956 1098.12 896.412 1093.78 896.231C1093.23 895.869 1092.69 895.326 1092.42 894.42C1092.06 893.605 1091.87 892.608 1091.78 891.612C1091.78 890.615 1091.6 889.529 1091.33 888.351C1091.15 887.264 1090.79 886.177 1090.43 885.271C1090.06 884.366 1089.34 883.641 1088.16 882.916C1087.07 882.282 1085.71 881.829 1084.08 881.739C1081.82 881.739 1079.83 882.101 1078.02 883.007C1076.29 883.913 1074.76 885.181 1073.58 886.539C1072.4 887.989 1071.4 889.981 1070.5 892.518C1069.5 895.054 1068.87 897.318 1068.32 899.402C1067.87 901.485 1067.42 904.112 1067.06 907.372C1066.69 910.543 1066.42 913.079 1066.24 914.981C1066.15 916.792 1065.97 919.238 1065.88 922.318C1065.79 923.224 1065.79 924.401 1065.79 925.76C1065.7 927.118 1065.7 928.024 1065.7 928.477C1065.61 929.564 1065.61 930.651 1065.52 931.738C1065.43 934.002 1065.33 935.904 1065.33 937.354C1065.33 938.894 1065.33 940.796 1065.43 943.151C1065.52 945.506 1065.79 947.498 1066.06 949.129C1066.42 950.759 1066.97 952.48 1067.69 954.382C1068.41 956.194 1069.32 957.734 1070.41 958.911C1071.49 959.998 1072.94 960.994 1074.66 961.9C1076.39 962.715 1078.38 963.168 1080.55 963.349C1086.35 963.621 1091.06 963.078 1094.86 961.719C1095.04 957.462 1095.32 953.114 1095.59 948.766C1094.41 948.676 1093.32 948.585 1092.15 948.585V948.766C1090.24 948.676 1088.43 948.585 1086.53 948.495C1086.08 948.404 1085.35 948.404 1084.27 948.404C1083.27 948.495 1082.36 948.404 1081.73 948.404C1080.82 946.955 1080.01 945.415 1079.1 943.966C1079.65 934.183 1080.19 924.401 1080.73 914.528C1080.82 912.716 1081.82 910.724 1083.81 908.731C1085.71 908.822 1087.62 908.912 1089.52 909.003C1093.41 909.275 1098.12 909.637 1103.74 910.09C1109.27 910.543 1113.61 910.814 1116.51 910.995C1118.69 911.177 1120.77 911.267 1122.85 911.358C1125.84 911.539 1128.2 911.72 1129.92 911.901C1131.55 912.082 1133.45 912.535 1135.53 913.26C1137.53 913.985 1138.88 914.981 1139.52 916.249Z" fill="#011833"/>
<path d="M1268.23 900.399C1268.23 900.399 1268.14 899.764 1268.05 899.402C1266.42 890.163 1263.43 881.287 1259.08 872.501C1259.08 872.41 1258.99 872.319 1258.9 872.229C1256.82 867.7 1253.92 863.624 1250.48 860.091C1246.86 856.468 1242.96 853.66 1238.88 851.668C1234.81 849.675 1230.91 848.045 1227.2 847.048C1223.49 845.961 1219.86 845.327 1216.42 845.055C1210.08 844.603 1203.92 845.055 1197.85 846.414C1191.78 847.773 1185.9 850.218 1180.19 853.66C1174.48 857.193 1169.41 861.631 1164.97 866.975C1163.61 868.606 1162.35 870.327 1161.08 872.229C1158.18 876.486 1155.64 881.468 1153.38 886.993C1151.84 890.888 1150.57 895.054 1149.48 899.402C1148.31 904.022 1147.49 908.822 1146.86 913.985C1146.59 917.88 1146.4 921.775 1146.13 925.67C1145.77 931.467 1145.68 937.173 1145.86 942.789C1146.04 948.314 1146.59 954.111 1147.58 959.999C1148.49 965.886 1149.85 971.412 1151.57 976.575C1153.29 981.647 1155.55 986.538 1158.54 991.248C1161.44 995.958 1164.79 999.944 1168.69 1003.39C1172.49 1006.74 1177.2 1009.54 1182.64 1011.81C1188.16 1014.07 1194.14 1015.43 1200.84 1015.89C1206.46 1016.34 1212.16 1015.89 1217.78 1014.98C1223.4 1013.89 1229.19 1011.72 1235.08 1008.37C1240.88 1005.02 1245.59 1000.58 1249.03 995.143C1250.3 993.15 1251.66 991.067 1252.92 989.074C1261.89 975.035 1267.33 956.013 1269.14 932.101C1270.04 920.597 1269.77 910 1268.23 900.399ZM1224.03 918.876C1223.94 921.413 1223.85 924.221 1223.58 927.21C1223.31 931.286 1223.03 934.637 1222.76 937.264C1222.49 939.891 1222.13 943.061 1221.58 946.774C1221.13 950.397 1220.59 953.477 1219.95 955.923C1219.32 958.368 1218.5 960.905 1217.42 963.531C1216.42 966.249 1215.24 968.332 1213.88 969.781C1212.62 971.321 1211.08 972.498 1209.18 973.404C1207.36 974.31 1205.28 974.672 1203.02 974.491C1200.84 974.22 1199.03 973.133 1197.49 971.412C1195.86 969.6 1194.68 967.426 1193.96 964.89C1193.14 962.354 1192.6 959.455 1192.24 956.104C1191.87 952.752 1191.69 949.673 1191.69 946.684C1191.69 943.695 1191.87 940.615 1192.06 937.354C1192.33 933.912 1192.6 931.104 1192.69 928.93C1192.87 926.847 1193.23 923.768 1193.69 919.782C1194.23 915.887 1194.68 912.627 1195.32 910.09C1195.86 907.554 1196.58 904.656 1197.58 901.485C1197.85 900.761 1198.12 900.036 1198.31 899.402C1199.21 897.228 1200.03 895.326 1200.93 893.967C1202.2 892.065 1203.65 890.616 1205.46 889.348C1207.27 888.08 1209.27 887.627 1211.35 887.718C1213.61 887.899 1215.52 888.623 1217.15 889.891C1218.78 891.16 1220.04 892.881 1220.86 895.054C1221.4 896.413 1221.95 897.862 1222.31 899.402C1222.58 900.217 1222.85 901.033 1223.03 901.938C1223.58 904.384 1223.94 907.192 1224.03 910.271C1224.12 913.442 1224.12 916.34 1224.03 918.876Z" fill="#011833"/>
<path d="M1367.69 982.099C1366.42 995.686 1365.06 1009.27 1363.79 1022.86C1363.61 1023.31 1363.07 1023.76 1362.16 1024.04C1358.08 1025.4 1347.03 1025.12 1329.01 1023.49C1311.26 1021.86 1293.5 1020.23 1275.66 1018.78C1274.66 1016.16 1274.39 1012.17 1274.84 1006.74C1275.66 996.592 1276.56 986.537 1277.38 976.483C1278.1 967.607 1279.28 954.473 1280.82 937.082C1282.27 920.778 1283.36 908.188 1284.17 899.402C1284.17 898.858 1284.26 898.315 1284.26 897.771C1284.35 896.05 1284.63 892.427 1284.99 886.811C1285.26 881.195 1285.53 876.757 1285.8 873.406C1285.8 873.043 1285.89 872.591 1285.89 872.228C1286.89 861.359 1288.34 855.471 1290.15 854.294C1290.6 854.475 1291.42 854.565 1292.32 854.656C1293.14 854.747 1294.05 854.837 1294.86 854.928C1296.49 855.018 1299.21 855.2 1302.92 855.381C1306.73 855.562 1309.53 855.743 1311.53 855.924C1318.95 856.558 1324.93 857.464 1329.46 858.732C1333.99 859.91 1336.53 861.721 1336.89 863.986C1336.62 866.703 1336.35 869.511 1336.07 872.228C1335.17 881.286 1334.26 890.344 1333.36 899.402C1330.82 924.129 1328.37 948.857 1325.93 973.675C1326.47 973.675 1327.11 973.766 1327.65 973.766C1331.82 973.857 1334.72 974.038 1336.35 974.219C1338.07 974.4 1341.06 974.853 1345.49 975.487C1349.84 976.121 1354.1 976.664 1358.17 977.117C1359.62 977.208 1360.98 977.389 1362.16 977.57C1363.61 977.933 1364.79 978.204 1365.6 978.567C1367.14 979.291 1367.87 980.469 1367.69 982.099Z" fill="#011833"/>
<path d="M425.191 670.473C414.926 677.857 406.401 689.323 400.939 703.31C399.858 706.071 396.016 706.071 394.936 703.31C389.413 689.323 380.949 677.857 370.684 670.473C368.883 669.153 368.883 666.511 370.684 665.191C380.949 657.807 389.473 646.341 394.936 632.354C396.016 629.593 399.858 629.593 400.939 632.354C406.461 646.341 414.926 657.807 425.191 665.191C426.992 666.511 426.992 669.153 425.191 670.473Z" fill="#FFB516"/>
<path d="M947.45 310.955C932.083 321.94 919.477 339.109 911.252 359.939C909.632 364.021 903.869 364.021 902.308 359.939C894.084 339.049 881.478 321.94 866.11 310.955C863.409 309.034 863.409 305.012 866.11 303.091C881.478 292.106 894.084 274.937 902.308 254.107C903.929 250.025 909.692 250.025 911.252 254.107C919.477 274.997 932.083 292.106 947.45 303.091C950.152 305.012 950.152 309.034 947.45 310.955Z" fill="#FFB516"/>
<path d="M781.107 253.506C771.442 260.469 763.458 271.215 758.296 284.421C757.275 287.003 753.674 287.003 752.653 284.421C747.491 271.275 739.507 260.469 729.842 253.506C728.101 252.305 728.101 249.784 729.842 248.523C739.507 241.56 747.491 230.815 752.653 217.608C753.674 215.027 757.275 215.027 758.296 217.608C763.458 230.755 771.442 241.56 781.107 248.523C782.848 249.724 782.848 252.245 781.107 253.506Z" fill="#FFB516"/>
<path d="M1026.87 436.777C1016.42 444.281 1007.84 455.926 1002.26 470.093C1001.18 472.855 997.275 472.855 996.135 470.093C990.552 455.926 981.968 444.281 971.523 436.777C969.662 435.456 969.662 432.755 971.523 431.434C981.968 423.931 990.552 412.285 996.135 398.118C997.215 395.356 1001.12 395.356 1002.26 398.118C1007.84 412.285 1016.42 423.931 1026.87 431.434C1028.73 432.755 1028.73 435.456 1026.87 436.777Z" fill="#FFB516"/>
<path d="M517.997 724.86C511.694 729.363 506.531 736.386 503.17 744.91C502.509 746.591 500.168 746.591 499.508 744.91C496.146 736.386 490.984 729.363 484.681 724.86C483.6 724.08 483.6 722.459 484.681 721.619C490.984 717.116 496.146 710.093 499.508 701.569C500.168 699.888 502.509 699.888 503.17 701.569C506.531 710.093 511.694 717.116 517.997 721.619C519.138 722.399 519.138 724.02 517.997 724.86Z" fill="#FFB516"/>
<path d="M614.105 567.042C614.105 567.042 614.045 567.162 613.985 567.222C613.625 567.702 613.265 568.123 612.965 568.603C613.385 568.303 613.745 568.003 614.165 567.702C614.165 567.642 614.285 567.582 614.345 567.522C614.285 567.342 614.165 567.222 614.105 567.042ZM648.142 633.615C635.356 637.757 621.969 640.519 608.162 641.719C636.136 657.267 665.13 659.368 665.13 659.368C655.886 651.984 650.843 641.959 648.142 633.615ZM742.689 564.281C724.8 589.433 700.848 609.963 672.934 623.59C733.024 632.595 801.278 624.191 801.278 624.191C768.382 609.363 750.733 581.089 742.689 564.281ZM773.724 491.945C769.522 513.736 761.478 534.206 750.373 552.635C803.739 559.959 843.239 553.836 843.239 553.836C806.501 539.549 784.83 511.334 773.724 491.945Z" fill="#FF531F"/>
<g clip-path="url(#clip0_33_1059)">
<path d="M591.29 619.968C680.079 619.968 752.056 548.002 752.056 459.228C752.056 370.454 680.079 298.489 591.29 298.489C502.501 298.489 430.523 370.454 430.523 459.228C430.523 548.002 502.501 619.968 591.29 619.968Z" fill="#FFF5E1"/>
<path d="M657.27 457.25C651.042 456.368 645.508 461.34 640.643 464.468C630.137 471.178 620.861 478.957 611.906 487.725C606.373 493.151 598.888 500.369 596.909 508.175C596 511.784 597.123 515.927 597.845 519.456C599.101 525.604 601.026 531.592 602.951 537.553C605.124 544.254 607.641 550.839 610.489 557.282C611.906 560.516 613.457 563.724 614.98 566.932C616.397 569.926 617.333 571.69 620.808 572.145C624.711 572.652 628.614 572.064 632.49 571.904C638.21 571.69 643.931 571.129 649.571 570.166C657.03 568.91 664.541 567.547 671.679 565.007C678.282 562.628 685.847 558.939 689.67 552.871C697.876 539.826 702.848 525.016 705.575 509.912C706.377 505.555 707.152 501.118 707.126 496.653C707.152 492.724 707.5 488.687 704.666 485.666C699.587 480.213 693.572 475.695 687.344 471.605C678.121 465.617 668.471 458.854 657.27 457.25ZM475.893 394.216C470.093 397.29 465.548 404.615 462.153 409.988C455.363 420.681 449.883 433.031 447.317 445.461C445.365 454.978 449.616 464.254 452.797 473.049C455.898 481.523 461.298 488.233 467.206 494.889C468.703 496.6 470.601 497.883 472.098 499.567C473.808 501.465 475.974 503.256 478.219 504.513C479.823 505.421 481.267 504.192 482.897 503.818C487.201 502.775 490.409 500.583 494.312 498.525C497.814 496.653 501.423 495.076 504.951 493.205C512.516 489.142 521.525 485.8 528.128 480.213C528.983 479.491 530.106 478.582 530.347 477.433C530.961 474.573 530.106 470.857 529.972 467.943C529.812 463.853 529.759 459.79 529.732 455.7C529.705 446.451 530.053 437.201 530.053 427.952C530.133 422.793 530.774 417.66 530.534 412.501C530.106 404.829 521.819 402.102 515.591 400.552C506.849 398.386 498.054 395.419 489.126 394.323C485.437 393.922 479.342 392.398 475.893 394.216ZM702.822 371.146C703.65 365.346 699.774 358.369 696.967 353.182C691.407 342.837 683.441 332.679 673.497 324.606C665.905 318.431 654.731 315.918 644.332 314.875C625.7 312.978 611.478 314.127 607.549 314.742C603.592 315.357 599.877 316.56 597.765 319.179C593.595 324.258 592.873 331.53 591.991 337.785C590.708 346.713 589.585 355.909 590.761 364.891C590.948 366.495 591.189 368.607 591.964 370.024C593.434 372.643 596.535 373.953 599.609 375.317C615.542 382.347 645.936 399.75 650.881 402.102C658.259 405.657 666.119 400.926 671.572 397.103C679.137 391.784 687.558 386.785 694.241 380.77C696.994 378.311 702.314 374.568 702.822 371.146ZM473.969 570.006C474.61 570.995 475.225 571.744 476.214 572.492C477.791 573.695 479.288 574.925 480.785 576.235C493.857 587.703 509.175 596.337 524.359 604.624C528.93 607.137 533.287 609.703 537.939 612.029C542.964 614.515 548.15 616.199 553.55 617.696C557.212 618.712 560.928 619.701 564.724 620.075C568.253 620.423 571.861 621.251 575.417 621.305C577.448 621.332 579.32 621.251 581.298 620.984C580.336 619.434 579.48 617.455 578.651 615.798C577.342 613.205 576.005 610.585 574.668 608.019C573.118 605.052 571.915 601.951 570.338 599.01C569.108 596.765 567.504 594.439 565.285 593.129C562.318 591.365 559.485 589.627 556.25 588.317C544.434 583.506 533.849 576.716 522.862 570.354C517.301 567.119 511.848 563.671 506.609 559.901C503.802 557.896 501.075 555.811 498.108 554.02C497.493 553.619 496.878 553.138 496.156 553.031C495.515 552.924 494.526 552.951 493.884 553.031C493.296 553.111 492.601 553.218 492.04 553.325C488.19 554.127 484.02 555.143 480.037 556.025C476.241 556.881 471.991 557.175 468.355 558.565C466.938 559.099 467.099 559.901 467.66 561.131C468.515 563.056 469.772 564.82 471.082 566.424C471.964 567.573 473.06 568.643 473.969 570.006Z" fill="#011833"/>
<path d="M520.212 417.314C519.307 417.315 518.42 417.06 517.654 416.578C516.888 416.096 516.273 415.407 515.882 414.59C515.491 413.774 515.338 412.864 515.442 411.965C515.546 411.065 515.902 410.214 516.47 409.509C517.78 407.905 548.628 370.106 603.803 361.551C604.425 361.457 605.059 361.485 605.669 361.635C606.279 361.786 606.854 362.054 607.36 362.427C607.867 362.799 608.295 363.268 608.62 363.805C608.946 364.343 609.162 364.94 609.257 365.561C609.351 366.182 609.323 366.816 609.173 367.427C609.023 368.037 608.754 368.612 608.381 369.118C608.009 369.625 607.54 370.053 607.003 370.378C606.465 370.703 605.868 370.92 605.247 371.014C553.895 379.007 524.222 415.176 523.928 415.523C522.966 416.7 521.602 417.314 520.212 417.314ZM508.824 585.138C507.434 585.138 506.044 584.55 505.109 583.374C503.799 581.77 473.405 543.596 476.693 487.887C476.853 485.24 479.098 483.209 481.745 483.369C484.391 483.53 486.396 485.802 486.236 488.448C483.188 540.496 512.246 576.985 512.54 577.332C514.224 579.391 513.877 582.411 511.845 584.069C510.963 584.764 509.894 585.138 508.824 585.138ZM544.966 603.957C542.507 603.957 540.422 602.086 540.208 599.573C539.994 596.927 541.945 594.601 544.592 594.387C545.046 594.361 591.614 589.977 626.953 551.857C627.823 550.926 629.026 550.378 630.299 550.333C631.571 550.288 632.81 550.749 633.743 551.616C635.695 553.407 635.802 556.455 633.984 558.406C596.024 599.306 547.426 603.77 545.394 603.957C545.234 603.931 545.1 603.957 544.966 603.957ZM478.377 411.567C476.131 411.567 474.126 409.99 473.699 407.691C473.431 406.354 467.39 374.677 480.408 337.145C481.29 334.632 483.99 333.296 486.503 334.178C488.989 335.06 490.326 337.76 489.47 340.273C477.281 375.399 483.028 405.526 483.108 405.846C483.616 408.439 481.932 410.979 479.312 411.487C479.018 411.54 478.697 411.567 478.377 411.567ZM617.677 332.948C616.688 332.948 615.672 332.627 614.844 331.986C614.603 331.825 589.662 313.728 552.852 309.691C550.232 309.424 548.308 307.045 548.602 304.425C548.869 301.778 551.248 299.907 553.868 300.175C593.378 304.478 619.415 323.458 620.511 324.26C622.623 325.837 623.077 328.831 621.5 330.97C620.591 332.28 619.148 332.948 617.677 332.948ZM738.666 410.925C737.276 410.925 735.886 410.311 734.924 409.134C711.56 380.237 682.957 369.143 682.69 369.036C681.501 368.586 680.539 367.684 680.013 366.527C679.487 365.371 679.44 364.053 679.883 362.861C680.818 360.375 683.598 359.145 686.058 360.054C687.341 360.536 717.388 372.191 742.356 403.093C744.04 405.151 743.692 408.172 741.634 409.829C740.778 410.578 739.709 410.925 738.666 410.925ZM654.06 475.724C653.872 475.724 653.632 475.697 653.445 475.67C652.821 475.59 652.219 475.387 651.673 475.073C651.128 474.759 650.651 474.34 650.268 473.841C649.885 473.341 649.605 472.771 649.444 472.163C649.283 471.555 649.243 470.921 649.328 470.297C655.45 424.479 649.435 390.636 649.355 390.288C648.874 387.695 650.584 385.182 653.204 384.728C655.824 384.22 658.31 385.984 658.791 388.577C659.032 390.021 665.153 424.265 658.818 471.58C658.497 473.986 656.439 475.724 654.06 475.724ZM612.465 514.86C612.304 514.86 612.197 514.86 612.037 514.833C552.478 509.567 513.289 475.964 511.631 474.548C510.675 473.712 510.087 472.532 509.997 471.265C509.907 469.998 510.321 468.747 511.15 467.784C512.888 465.78 515.908 465.566 517.913 467.303C518.314 467.624 556.541 500.317 612.892 505.289C614.117 505.405 615.251 505.988 616.059 506.916C616.867 507.845 617.286 509.049 617.231 510.278C617.177 511.507 616.651 512.669 615.764 513.522C614.876 514.374 613.695 514.853 612.465 514.86ZM441.406 459.925C437.37 459.925 432.959 459.417 428.842 457.84C427.654 457.39 426.692 456.488 426.166 455.331C425.64 454.174 425.593 452.856 426.035 451.665C426.998 449.206 429.724 447.949 432.237 448.858C441.059 452.226 452.848 448.778 452.981 448.751C455.494 448.003 458.167 449.42 458.916 451.986C459.691 454.499 458.247 457.172 455.735 457.947C455.334 458.054 449.025 459.925 441.406 459.925ZM702.685 500.825C700.867 500.825 699.157 499.783 698.355 498.045C697.232 495.666 698.301 492.806 700.68 491.683C700.948 491.549 728.802 478.37 750.001 448.003C751.498 445.811 754.492 445.276 756.657 446.8C758.822 448.324 759.357 451.291 757.86 453.456C735.138 486.042 705.946 499.783 704.717 500.371C704.022 500.665 703.353 500.825 702.685 500.825ZM702.685 581.743C701.616 581.743 700.547 581.396 699.638 580.701C688.678 572.066 678.065 556.374 677.611 555.733C676.114 553.487 676.702 550.44 678.947 548.916C681.166 547.419 684.24 548.007 685.737 550.279C685.844 550.413 695.949 565.33 705.706 573.002C707.818 574.686 708.192 577.76 706.535 579.899C705.545 581.075 704.129 581.743 702.685 581.743Z" fill="#011833"/>
<path d="M591.293 629.565C497.356 629.565 420.956 553.165 420.956 459.229C420.956 365.319 497.356 288.892 591.293 288.892C685.229 288.892 761.629 365.319 761.629 459.202C761.629 553.165 685.202 629.565 591.293 629.565ZM591.293 308.059C507.942 308.059 440.123 375.878 440.123 459.229C440.123 542.579 507.915 610.398 591.266 610.398C674.616 610.398 742.435 542.579 742.435 459.229C742.462 375.878 674.616 308.059 591.293 308.059Z" fill="#011833"/>
</g>
<defs>
<clipPath id="clip0_33_1059">
<rect width="342.17" height="342.17" fill="white" transform="translate(420.209 288.143)"/>
</clipPath>
</defs>
</svg>
